Coordinates
version=1
nRows=19
nColumns=24
inDegrees=yes

Units are S.I. units (second, meters, Newtons, ...)
Angles are in degrees.

endheader
time	pelvis_tilt	pelvis_list	pelvis_rotation	pelvis_tx	pelvis_ty	pelvis_tz	hip_flexion_r	hip_adduction_r	hip_rotation_r	knee_angle_r	ankle_angle_r	subtalar_angle_r	mtp_angle_r	hip_flexion_l	hip_adduction_l	hip_rotation_l	knee_angle_l	ankle_angle_l	subtalar_angle_l	mtp_angle_l	lumbar_extension	lumbar_bending	lumbar_rotation
      0.01000000	     53.80672360	    -14.50382715	      0.19979926	      0.43086172	      1.02430145	     -0.35902499	     26.03081497	      2.55436381	      2.65879199	    -16.16105660	     -2.53143023	     42.39571593	      0.00000000	     19.71098717	    -24.19245080	     11.37550440	    -69.23966432	     26.32162058	     29.87945678	      0.00000000	      0.00000000	      0.00000000	      0.00000000
      0.02000000	     53.81138470	    -14.51964257	      0.21792032	      0.43084612	      1.02425232	     -0.35898076	     26.02620856	      2.57480470	      2.64867876	    -16.15848808	     -2.56305388	     42.24880625	      0.00000000	     19.72756786	    -24.21094660	     11.39694587	    -69.24495826	     26.31038489	     29.87512695	      0.00000000	      0.00000000	      0.00000000	      0.00000000
      0.03000000	     53.81691067	    -14.53381915	      0.23177033	      0.43083835	      1.02422446	     -0.35895522	     26.02448630	      2.59026066	      2.62851466	    -16.16429995	     -2.59089308	     42.10565664	      0.00000000	     19.73671983	    -24.22964431	     11.41328781	    -69.24634673	     26.29882309	     29.86992915	      0.00000000	      0.00000000	      0.00000000	      0.00000000
      0.04000000	     53.82278023	    -14.54384727	      0.23897775	      0.43083617	      1.02422198	     -0.35894996	     26.02585123	      2.59867667	      2.59896440	    -16.17927141	     -2.61080637	     41.98436336	      0.00000000	     19.73579069	    -24.24530522	     11.42176689	    -69.24296018	     26.28772965	     29.86384755	      0.00000000	      0.00000000	      0.00000000	      0.00000000
      0.05000000	     53.82823698	    -14.54638574	      0.23721788	      0.43084023	      1.02424002	     -0.35896122	     26.02954606	      2.59811566	      2.56470595	    -16.20166281	     -2.61757603	     41.91207713	      0.00000000	     19.72336878	    -24.25300005	     11.41990586	    -69.23464546	     26.27838889	     29.85705145	      0.00000000	      0.00000000	      0.00000000	      0.00000000
      0.06000000	     53.83273693	    -14.53816762	      0.22594038	      0.43085070	      1.02426766	     -0.35897603	     26.03341221	      2.58772033	      2.53652769	    -16.22540724	     -2.60650433	     41.92037848	      0.00000000	     19.70129695	    -24.24709058	     11.40697230	    -69.22290934	     26.27237212	     29.84993671	      0.00000000	      0.00000000	      0.00000000	      0.00000000
      0.07000000	     53.83615797	    -14.51707063	      0.20798635	      0.43085785	      1.02429363	     -0.35897912	     26.03400556	      2.56748352	      2.53130178	    -16.24007212	     -2.57502456	     42.03793294	      0.00000000	     19.67527167	    -24.22357869	     11.38488121	    -69.21146848	     26.27117234	     29.84301305	      0.00000000	      0.00000000	      0.00000000	      0.00000000
      0.08000000	     53.83845600	    -14.48315734	      0.18964523	      0.43084161	      1.02431044	     -0.35897870	     26.02725129	      2.53628340	      2.56857029	    -16.23330189	     -2.52394305	     42.28111992	      0.00000000	     19.65343125	    -24.18382862	     11.35845525	    -69.20595191	     26.27574067	     29.83666983	      0.00000000	      0.00000000	      0.00000000	      0.00000000
      0.09000000	     53.83911040	    -14.44026081	      0.17794292	      0.43080000	      1.02431527	     -0.35901582	     26.00955722	      2.48939509	      2.66340260	    -16.19551567	     -2.45797113	     42.64452588	      0.00000000	     19.64331937	    -24.13724625	     11.33477043	    -69.21222027	     26.28601795	     29.83096774	      0.00000000	      0.00000000	      0.00000000	      0.00000000
      0.10000000	     53.83684755	    -14.39816331	      0.17630494	      0.43079579	      1.02429900	     -0.35909869	     25.97915173	      2.41919040	      2.81712000	    -16.12546477	     -2.38535019	     43.09437344	      0.00000000	     19.64855449	    -24.09880348	     11.32091148	    -69.23326275	     26.30061844	     29.82565760	      0.00000000	      0.00000000	      0.00000000	      0.00000000
      0.11000000	     53.83029301	    -14.37115226	      0.18218589	      0.43094321	      1.02423940	     -0.35913067	     25.93766877	      2.32363011	      3.00972308	    -16.03400326	     -2.31655254	     43.56843912	      0.00000000	     19.66698650	    -24.08042620	     11.32033689	    -69.26595172	     26.31684803	     29.82048889	      0.00000000	      0.00000000	      0.00000000	      0.00000000
      0.12000000	     53.81966232	    -14.36814779	      0.18953602	      0.43126258	      1.02413304	     -0.35901575	     25.89187538	      2.22045777	      3.19938425	    -15.94317463	     -2.26223911	     43.98503579	      0.00000000	     19.69133048	    -24.08224215	     11.33014816	    -69.30021276	     26.33114377	     29.81558215	      0.00000000	      0.00000000	      0.00000000	      0.00000000
      0.13000000	     53.80833943	    -14.38166942	      0.19412841	      0.43153901	      1.02403993	     -0.35887514	     25.85395960	      2.15063792	      3.33353541	    -15.87957449	     -2.23091530	     44.26086311	      0.00000000	     19.71170076	    -24.09266619	     11.34218371	    -69.32256510	     26.33988507	     29.81148518	      0.00000000	      0.00000000	      0.00000000	      0.00000000
      0.14000000	     53.80276134	    -14.39428556	      0.19533085	      0.43149800	      1.02404584	     -0.35893839	     25.83748041	      2.15256064	      3.37043714	    -15.86437911	     -2.22700951	     44.33365090	      0.00000000	     19.71893503	    -24.09916323	     11.34817966	    -69.32292174	     26.34040787	     29.80877700	      0.00000000	      0.00000000	      0.00000000	      0.00000000
      0.15000000	     53.80893876	    -14.39939071	      0.19298767	      0.43117466	      1.02415458	     -0.35915522	     25.84902018	      2.22525875	      3.29973837	    -15.90487102	     -2.25012749	     44.18223535	      0.00000000	     19.70799492	    -24.09982515	     11.34518631	    -69.30037346	     26.33191194	     29.80756318	      0.00000000	      0.00000000	      0.00000000	      0.00000000
      0.16000000	     53.82671657	    -14.40548364	      0.18654450	      0.43086997	      1.02427342	     -0.35925052	     25.88218462	      2.32813532	      3.14693313	    -15.99129831	     -2.29570480	     43.83580902	      0.00000000	     19.68046178	    -24.10382440	     11.33662409	    -69.26363141	     26.31585483	     29.80736840	      0.00000000	      0.00000000	      0.00000000	      0.00000000
      0.17000000	     53.84880575	    -14.42045342	      0.17813310	      0.43075449	      1.02432557	     -0.35914637	     25.92134884	      2.41796431	      2.95934980	    -16.09991030	     -2.35645046	     43.36700816	      0.00000000	     19.64454458	    -24.12073602	     11.32847945	    -69.22557175	     26.29556505	     29.80752712	      0.00000000	      0.00000000	      0.00000000	      0.00000000
      0.18000000	     53.86708738	    -14.44282645	      0.17288150	      0.43076155	      1.02432782	     -0.35900458	     25.95217309	      2.47628470	      2.78534898	    -16.20130030	     -2.42382747	     42.87064333	      0.00000000	     19.61179610	    -24.15059387	     11.32474515	    -69.19605542	     26.27518154	     29.80766721	      0.00000000	      0.00000000	      0.00000000	      0.00000000
      0.19000000	     53.87790888	    -14.46631898	      0.17491934	      0.43078284	      1.02434115	     -0.35895480	     25.96833022	      2.50739623	      2.65862000	    -16.27153577	     -2.48933091	     42.43695726	      0.00000000	     19.59184320	    -24.18413043	     11.32595305	    -69.17823393	     26.25837330	     29.80786927	      0.00000000	      0.00000000	      0.00000000	      0.00000000
